<?xml version="1.0" standalone="no"?>
<!DOCTYPE svg PUBLIC "-//W3C//DTD SVG 20010904//EN"
 "http://www.w3.org/TR/2001/REC-SVG-20010904/DTD/svg10.dtd">
<svg version="1.0" xmlns="http://www.w3.org/2000/svg"
 width="191.000000pt" height="191.000000pt" viewBox="0 0 191.000000 191.000000"
 preserveAspectRatio="xMidYMid meet">
<metadata>
Created by potrace 1.14, written by Peter Selinger 2001-2017
</metadata>
<g transform="translate(0.000000,191.000000) scale(0.100000,-0.100000)"
fill="#000000" stroke="none">
<path d="M810 1895 c-75 -13 -181 -41 -210 -56 -8 -4 -44 -22 -80 -39 -170
-80 -345 -262 -429 -445 -57 -124 -84 -246 -84 -385 0 -122 9 -193 37 -291 66
-222 231 -429 440 -548 263 -150 598 -163 875 -34 178 83 347 245 437 420 75
146 107 281 105 453 -5 461 -343 852 -799 925 -77 12 -216 12 -292 0z"/>
</g>
</svg>
