<?xml version="1.0" encoding="utf-8"?>
<!-- Generator: Adobe Illustrator 16.0.0, SVG Export Plug-In . SVG Version: 6.00 Build 0)  -->
<!DOCTYPE svg PUBLIC "-//W3C//DTD SVG 1.1//EN" "http://www.w3.org/Graphics/SVG/1.1/DTD/svg11.dtd">
<svg version="1.1" id="Layer_1" xmlns="http://www.w3.org/2000/svg" xmlns:xlink="http://www.w3.org/1999/xlink" x="0px" y="0px"
	 width="21.998px" height="21.998px" viewBox="0 0 21.998 21.998" enable-background="new 0 0 21.998 21.998" xml:space="preserve">
<g>
	<circle fill="#FFFFFF" cx="11" cy="11" r="11"/>
	<linearGradient id="SVGID_1_" gradientUnits="userSpaceOnUse" x1="0.7988" y1="10.6914" x2="21.0703" y2="10.6914">
		<stop  offset="0" style="stop-color:#CC2B5E"/>
		<stop  offset="1" style="stop-color:#753A88"/>
	</linearGradient>
	<path fill="url(#SVGID_1_)" d="M10.935,1.033c-5.597,0-10.136,4.434-10.136,9.904c0,4.373,2.903,8.086,6.932,9.396
		c0.506,0.092,0.67-0.217,0.67-0.477v-1.844c-2.82,0.599-3.407-1.169-3.407-1.169c-0.461-1.144-1.126-1.448-1.126-1.448
		c-0.919-0.615,0.07-0.603,0.07-0.603c1.019,0.069,1.555,1.021,1.555,1.021c0.904,1.514,2.37,1.076,2.949,0.822
		c0.09-0.639,0.354-1.076,0.643-1.322c-2.25-0.252-4.617-1.101-4.617-4.895c0-1.081,0.396-1.964,1.045-2.658
		c-0.105-0.25-0.453-1.257,0.098-2.62c0,0,0.852-0.266,2.789,1.015c0.808-0.22,1.674-0.329,2.536-0.333
		c0.86,0.004,1.728,0.114,2.54,0.333c1.934-1.281,2.783-1.015,2.783-1.015c0.553,1.363,0.205,2.372,0.1,2.62
		c0.652,0.693,1.045,1.577,1.045,2.658c0,3.803-2.371,4.642-4.629,4.887c0.363,0.307,0.695,0.908,0.695,1.833v2.718
		c0,0.264,0.16,0.573,0.676,0.475c4.027-1.311,6.926-5.022,6.926-9.395C21.07,5.467,16.531,1.033,10.935,1.033z"/>
</g>
</svg>
