<?xml version="1.0" encoding="utf-8"?>
<!-- Generator: Adobe Illustrator 16.0.0, SVG Export Plug-In . SVG Version: 6.00 Build 0)  -->
<!DOCTYPE svg PUBLIC "-//W3C//DTD SVG 1.1//EN" "http://www.w3.org/Graphics/SVG/1.1/DTD/svg11.dtd">
<svg version="1.1" id="Layer_1" xmlns="http://www.w3.org/2000/svg" xmlns:xlink="http://www.w3.org/1999/xlink" x="0px" y="0px"
	 width="47.188px" height="47px" viewBox="0 0 47.188 47" enable-background="new 0 0 47.188 47" xml:space="preserve">
<g id="icon_2_">
	<circle id="circle_8_" fill="none" stroke="#FFFFFF" stroke-width="2" stroke-miterlimit="10" cx="23.626" cy="23.542" r="22.5"/>
</g>
<g id="brain-icon">
	<path fill="none" stroke="#FFFFFF" stroke-miterlimit="10" d="M37.447,14.234L36.36,14.03c-0.208-0.037-0.379-0.182-0.452-0.38
		c-0.049-0.141-0.106-0.279-0.171-0.414c-0.089-0.191-0.069-0.415,0.052-0.587l0.624-0.913c0.104-0.153,0.085-0.358-0.046-0.489
		l-0.663-0.663c-0.132-0.131-0.337-0.15-0.489-0.046L34.3,11.162c-0.173,0.12-0.396,0.14-0.587,0.051
		c-0.135-0.064-0.272-0.122-0.414-0.171c-0.197-0.072-0.342-0.244-0.379-0.452l-0.205-1.087c-0.033-0.182-0.192-0.314-0.378-0.314
		H31.4c-0.187,0-0.345,0.132-0.379,0.314l-0.205,1.087c-0.036,0.208-0.181,0.379-0.379,0.452c-0.141,0.049-0.279,0.106-0.414,0.171
		c-0.19,0.089-0.414,0.069-0.587-0.051l-0.913-0.625c-0.152-0.104-0.358-0.085-0.489,0.045l-0.664,0.664
		c-0.131,0.131-0.15,0.336-0.045,0.489l0.624,0.913c0.12,0.173,0.14,0.396,0.051,0.587c-0.064,0.135-0.122,0.272-0.171,0.414
		c-0.072,0.198-0.244,0.343-0.452,0.38l-1.087,0.204c-0.182,0.034-0.313,0.193-0.313,0.378v0.938c0,0.186,0.132,0.344,0.313,0.378
		l1.087,0.204c0.208,0.037,0.38,0.182,0.452,0.38c0.049,0.141,0.106,0.279,0.171,0.414c0.089,0.191,0.069,0.415-0.051,0.587
		l-0.624,0.913c-0.105,0.152-0.086,0.358,0.045,0.489l0.664,0.664c0.131,0.131,0.337,0.15,0.489,0.046l0.913-0.625
		c0.173-0.12,0.396-0.139,0.587-0.05c0.135,0.064,0.273,0.121,0.414,0.17c0.198,0.072,0.343,0.244,0.379,0.452l0.205,1.088
		c0.034,0.182,0.192,0.313,0.379,0.313h0.938c0.186,0,0.345-0.132,0.378-0.313l0.205-1.088c0.037-0.208,0.182-0.379,0.379-0.452
		c0.142-0.049,0.279-0.106,0.414-0.17c0.19-0.089,0.414-0.07,0.587,0.05l0.914,0.625c0.152,0.104,0.357,0.085,0.489-0.046
		l0.663-0.664c0.131-0.13,0.15-0.336,0.046-0.489l-0.624-0.914c-0.121-0.173-0.141-0.396-0.052-0.587
		c0.064-0.135,0.122-0.272,0.171-0.414c0.073-0.198,0.244-0.343,0.452-0.38l1.087-0.204c0.183-0.035,0.314-0.193,0.314-0.378v-0.938
		C37.761,14.427,37.629,14.268,37.447,14.234z M31.867,17.266c-1.206,0-2.184-0.978-2.184-2.185c0-1.206,0.978-2.184,2.184-2.184
		s2.185,0.978,2.185,2.184l0,0C34.052,16.288,33.073,17.266,31.867,17.266z"/>
	<path fill="none" stroke="#FFFFFF" stroke-miterlimit="10" d="M35.431,20.853c-0.311,0-0.615-0.094-0.872-0.27l-0.575-0.394
		l-0.129,0.685c-0.137,0.731-0.774,1.26-1.518,1.26H31.4c-0.744,0-1.381-0.529-1.52-1.26l-0.128-0.685l-0.575,0.394
		c-0.614,0.419-1.438,0.343-1.964-0.182l-0.663-0.664c-0.525-0.526-0.603-1.351-0.183-1.964l0.394-0.575l-0.686-0.129
		c-0.73-0.137-1.259-0.774-1.259-1.518V14.62c-0.675,0.264-1.294,0.654-1.825,1.148c-1.017-0.301-2.112-0.16-3.02,0.389
		c-0.813,0.529-1.412,1.328-1.694,2.255c-0.517-0.222-1.072-0.336-1.636-0.336c-1.257-0.029-2.452,0.542-3.222,1.536
		c-0.466,0.656-0.701,1.449-0.667,2.253c0.592,0.101,1.156,0.326,1.656,0.66c0.023,0.017,0.045,0.035,0.066,0.053
		c1.294,1.111,3.213,1.078,4.47-0.074c0.266-0.221,0.66-0.184,0.881,0.083c0.217,0.263,0.184,0.65-0.073,0.873
		c-0.842,0.757-1.929,1.183-3.06,1.198c-1.104-0.011-2.172-0.406-3.018-1.116c-0.475-0.311-1.028-0.479-1.596-0.488
		c-1.213,0.349-2.16,1.3-2.503,2.515c-0.102,0.393-0.152,0.795-0.15,1.199c0.003,2.094,1.58,3.851,3.662,4.077
		c0.241,1.956,2.021,3.345,3.977,3.104c0.529-0.065,1.036-0.248,1.484-0.535c-0.497-0.836-0.64-1.836-0.399-2.779
		c0.092-0.334,0.436-0.529,0.77-0.438c0.333,0.092,0.53,0.436,0.438,0.77c-0.189,0.82,0.036,1.683,0.604,2.306
		c0.864,0.782,1.989,1.216,3.155,1.212h1.718c0.341,0.002,0.658,0.182,0.836,0.474l1.472,2.39c0.178,0.29,0.495,0.467,0.836,0.465
		h0.002l1.918-0.006c0.543-0.002,0.98-0.441,0.979-0.983c-0.001-0.142-0.031-0.28-0.091-0.407l-0.724-1.567
		c-0.172-0.395,0.008-0.854,0.403-1.026c0.099-0.043,0.204-0.064,0.311-0.064h0.243c2.609,0.027,4.808-1.941,5.066-4.537
		c0.067-0.871-0.096-1.745-0.473-2.533c-0.332-0.231-0.699-0.406-1.088-0.518c-0.759-0.248-1.587-0.163-2.28,0.232
		c-0.757,0.475-1.078,1.243-0.979,2.35c0.03,0.344-0.223,0.648-0.567,0.68c-0.021,0.001-0.039,0.002-0.058,0.002
		c-0.323,0-0.594-0.248-0.622-0.57c-0.179-1.992,0.751-3.016,1.563-3.522c0.996-0.586,2.193-0.722,3.295-0.372
		c0.369,0.107,0.726,0.257,1.061,0.446c0.29-0.611,0.441-1.278,0.443-1.955c0.016-0.918-0.168-1.829-0.539-2.669
		C35.71,20.829,35.57,20.85,35.431,20.853z"/>
</g>
</svg>
