<?xml version="1.0" encoding="utf-8"?>
<!-- Generator: Adobe Illustrator 16.0.0, SVG Export Plug-In . SVG Version: 6.00 Build 0)  -->
<!DOCTYPE svg PUBLIC "-//W3C//DTD SVG 1.1//EN" "http://www.w3.org/Graphics/SVG/1.1/DTD/svg11.dtd">
<svg version="1.1" id="Layer_1" xmlns="http://www.w3.org/2000/svg" xmlns:xlink="http://www.w3.org/1999/xlink" x="0px" y="0px"
	 width="47.125px" height="47.125px" viewBox="0 0 47.125 47.125" enable-background="new 0 0 47.125 47.125" xml:space="preserve">
<g id="icon">
	<circle id="circle" fill="none" stroke="#FFFFFF" stroke-width="2" stroke-miterlimit="10" cx="23.667" cy="23.666" r="22.5"/>
	<g id="solving-problems-icon">
		<path fill="#FFFFFF" d="M26.32,22.968c0.374,0,0.678-0.304,0.678-0.678c0-0.67,0.168-1.795,1.292-1.795s1.293,1.125,1.293,1.795
			c0,0.374,0.304,0.678,0.678,0.678h3.257c0.375,0,0.678-0.304,0.678-0.678v-9.732c0-0.773-0.627-1.4-1.4-1.4h-1.897
			c-0.204-1.552-1.183-2.522-2.607-2.522s-2.402,0.97-2.607,2.522H13.33c-0.772,0-1.399,0.627-1.4,1.4v12.358
			c-1.522,0.22-2.472,1.192-2.472,2.601c0,1.41,0.949,2.383,2.472,2.602v1.904c0.001,0.772,0.628,1.399,1.4,1.4h9.009
			c0.773-0.001,1.4-0.628,1.401-1.4v-9.055H26.32z M25.82,12.513c0.05,0,0.099-0.005,0.147-0.016
			c0.038-0.003,0.091-0.007,0.145-0.01c0.242-0.016,0.886-0.058,0.886-0.702c0-0.67,0.168-1.794,1.292-1.794
			s1.293,1.124,1.293,1.794c0,0.643,0.643,0.686,0.885,0.702c0.053,0.003,0.105,0.007,0.145,0.01
			c0.048,0.011,0.098,0.017,0.147,0.016h2.034c0.025,0,0.046,0.02,0.046,0.045v0.001v9.055h-1.949
			c-0.219-1.522-1.191-2.472-2.601-2.472c-1.41,0-2.382,0.95-2.601,2.472H23.74V18.8c0-0.368-0.294-0.669-0.662-0.678
			c-0.8-0.019-1.753-0.257-1.753-1.29c0-1.033,0.953-1.271,1.753-1.29c0.368-0.009,0.662-0.31,0.662-0.678v-2.353H25.82z
			 M22.385,32.023c0,0.024-0.021,0.045-0.046,0.045H13.33c-0.024,0-0.045-0.021-0.045-0.045v-2.535c0-0.375-0.304-0.678-0.678-0.678
			c-0.67,0-1.795-0.168-1.795-1.293c0-1.123,1.125-1.293,1.795-1.293c0.374,0,0.678-0.303,0.678-0.677v-2.58h1.949
			c0.219,1.522,1.191,2.472,2.601,2.472s2.382-0.949,2.601-2.472h1.949V32.023z"/>
		<path fill="#FFFFFF" d="M37.866,34.635c-0.001-0.374-0.305-0.676-0.678-0.676h-0.003c-0.5,0.019-0.994-0.109-1.423-0.366
			c-0.323-0.235-0.505-0.62-0.482-1.019v-0.001c-0.006-1.213,1.181-1.399,1.889-1.403c0.374-0.002,0.676-0.306,0.674-0.68l0,0
			l-0.012-2.975c-0.001-0.373-0.305-0.674-0.678-0.674h-0.002l-2.628,0.01c-0.065-0.525-0.258-1.027-0.561-1.463
			c-0.471-0.65-1.234-1.023-2.036-0.995h-0.015c-0.809-0.024-1.575,0.356-2.043,1.017c-0.298,0.438-0.485,0.942-0.547,1.469
			l-2.625,0.01c-0.374,0.002-0.677,0.305-0.676,0.68c0,0,0,0,0,0.002l0.045,9.732c0.003,0.771,0.629,1.394,1.399,1.394h0.007
			l9.01-0.042c0.773-0.004,1.396-0.633,1.394-1.406L37.866,34.635z"/>
	</g>
</g>
</svg>
