<?xml version="1.0" encoding="utf-8"?>
<!-- Generator: Adobe Illustrator 16.0.0, SVG Export Plug-In . SVG Version: 6.00 Build 0)  -->
<!DOCTYPE svg PUBLIC "-//W3C//DTD SVG 1.1//EN" "http://www.w3.org/Graphics/SVG/1.1/DTD/svg11.dtd">
<svg version="1.1" id="Layer_1" xmlns="http://www.w3.org/2000/svg" xmlns:xlink="http://www.w3.org/1999/xlink" x="0px" y="0px"
	 width="47.188px" height="47px" viewBox="0 0 47.188 47" enable-background="new 0 0 47.188 47" xml:space="preserve">
<g id="icon_2_">
	<circle id="circle_8_" fill="none" stroke="#FFFFFF" stroke-width="2" stroke-miterlimit="10" cx="23.626" cy="23.542" r="22.5"/>
	<path id="hand" fill="none" stroke="#FFFFFF" stroke-miterlimit="10" d="M12.626,22.265v-5.248c0-0.786,0.541-1.432,1.382-1.432
		c0.06,0,0.188,0,0.249,0.008c0.78,0.085,1.419,0.733,1.419,1.466v4.544c0,0.364,0.031,0.872,0.42,0.872h0.016
		c0.42,0,1.09-0.531,1.09-0.929v-7.325c0-0.732,0.408-1.382,1.188-1.467c0.06-0.007,0.196-0.007,0.257-0.007
		c0.84,0,1.604,0.646,1.604,1.431v7.396c0,0.379,0.353,0.69,0.758,0.69c0.416,0,0.768-0.315,0.768-0.701v-9.405
		c0-0.733,0.394-1.383,1.173-1.467c0.061-0.008,0.205-0.011,0.265-0.011c0.84,0,1.615,0.646,1.615,1.435v9.448
		c0,0.386,0.353,0.701,0.765,0.701c0.409,0,0.761-0.312,0.761-0.69v-7.354c0-0.732,0.374-1.382,1.154-1.467
		c0.061-0.007,0.212-0.007,0.272-0.007c0.844,0,1.623,0.646,1.623,1.431v10.669c0,0.398,0.159,0.66,0.519,0.66
		c0.166,0,0.246-0.053,0.387-0.18l1.771-1.606c0.295-0.276,0.658-0.415,1.048-0.415c0.386,0,0.765,0.139,1.06,0.415
		c0.587,0.551,0.583,1.456-0.008,2.008l-6.455,7.967c0,0.004,0,0.004,0,0.004l-0.163,2.08c-0.026,0.313-0.306,0.621-0.644,0.621l0,0
		l-11.261-0.076c-0.321,0-0.594-0.254-0.636-0.557l-0.295-2.111c-0.012-0.088,0.102-0.184,0.049-0.258
		C13.058,30.895,12.626,26.744,12.626,22.265z"/>
</g>
</svg>
