<?xml version="1.0" encoding="utf-8"?>
<!-- Generator: Adobe Illustrator 16.0.0, SVG Export Plug-In . SVG Version: 6.00 Build 0)  -->
<!DOCTYPE svg PUBLIC "-//W3C//DTD SVG 1.1//EN" "http://www.w3.org/Graphics/SVG/1.1/DTD/svg11.dtd">
<svg version="1.1" id="Layer_1" xmlns="http://www.w3.org/2000/svg" xmlns:xlink="http://www.w3.org/1999/xlink" x="0px" y="0px"
	 width="47.188px" height="47px" viewBox="0 0 47.188 47" enable-background="new 0 0 47.188 47" xml:space="preserve">
<g id="icon_2_">
	<circle id="circle_8_" fill="none" stroke="#FFFFFF" stroke-width="2" stroke-miterlimit="10" cx="23.626" cy="23.542" r="22.5"/>
</g>
<path id="Teamwork-icon" fill="#FFFFFF" d="M37.594,16.005c0-0.559-0.375-1.046-0.91-1.183c0.326-0.588,0.119-1.332-0.461-1.662
	c-0.078-0.043-0.16-0.079-0.246-0.104c0.334-0.583,0.137-1.329-0.439-1.666c-0.184-0.107-0.393-0.164-0.604-0.163H28.17
	c-1.018-0.003-2.025,0.205-2.963,0.607l-0.656,0.281h-5.232V11.76c0-0.674-0.538-1.221-1.205-1.222
	c-0.194,0-0.385,0.047-0.557,0.138c-0.023-0.674-0.582-1.199-1.248-1.175c-0.535,0.02-0.995,0.396-1.125,0.922
	c-0.18-0.103-0.382-0.157-0.59-0.157c-0.532,0.002-1.002,0.356-1.156,0.873c-0.183-0.108-0.391-0.165-0.603-0.164
	c-0.664,0.002-1.202,0.548-1.202,1.221v6.842c-0.001,1.03,0.203,2.05,0.601,2.998l0.275,0.665v5.292h-0.684
	c-0.664,0.001-1.205,0.547-1.206,1.22c0,0.195,0.046,0.387,0.135,0.56c-0.666,0.026-1.184,0.593-1.159,1.267
	c0.021,0.541,0.391,1.003,0.909,1.136c-0.327,0.588-0.121,1.331,0.459,1.662c0.079,0.045,0.162,0.081,0.249,0.106
	c-0.333,0.583-0.136,1.33,0.439,1.667c0.185,0.106,0.393,0.163,0.604,0.163h6.764c1.018,0.002,2.026-0.205,2.962-0.608l0.657-0.28
	h5.232v0.357c-0.002,0.674,0.537,1.22,1.203,1.222c0.193,0,0.387-0.048,0.559-0.138c0.023,0.673,0.582,1.198,1.248,1.174
	c0.535-0.02,0.994-0.395,1.125-0.922c0.578,0.33,1.314,0.123,1.639-0.464c0.045-0.079,0.08-0.163,0.105-0.251
	c0.184,0.108,0.391,0.164,0.604,0.164c0.668,0,1.207-0.548,1.207-1.223l0,0v-6.843c0-1.03-0.205-2.049-0.602-2.997l-0.279-0.666
	v-5.292h0.684c0.664,0.002,1.205-0.543,1.205-1.217c0.002-0.196-0.045-0.39-0.135-0.564C37.082,17.199,37.594,16.66,37.594,16.005z
	 M13.137,22.504l-0.303-0.727c-0.364-0.866-0.552-1.799-0.55-2.74v-6.842c-0.011-0.309,0.229-0.566,0.533-0.577
	c0.305-0.01,0.562,0.232,0.571,0.54c0,0.013,0,0.025,0,0.037v4.375c0.007,0.183,0.159,0.325,0.341,0.316
	c0.169-0.008,0.305-0.145,0.313-0.316v-5.084c0-0.308,0.247-0.559,0.552-0.559c0.307,0,0.554,0.25,0.554,0.559l0,0v4.375
	c-0.009,0.183,0.132,0.337,0.313,0.345c0.18,0.008,0.332-0.134,0.34-0.316c0.002-0.01,0.002-0.019,0-0.028v-5.14
	c-0.01-0.309,0.229-0.567,0.535-0.578c0.304-0.01,0.559,0.232,0.569,0.54c0,0.014,0,0.025,0,0.038v5.139
	c0,0.183,0.146,0.33,0.327,0.33c0.179,0,0.326-0.147,0.326-0.329V15.86V11.76c0.01-0.311,0.267-0.552,0.57-0.542
	c0.293,0.011,0.525,0.246,0.535,0.542v7.844c0,0.005,0,0.01,0,0.014c0,0.005,0,0.009,0,0.013c0,0.008,0,0.015,0,0.022
	c0.001,0.003,0.001,0.006,0,0.009l0.006,0.023v0.007c0.001,0.009,0.005,0.017,0.007,0.024c0,0.002,0,0.004,0,0.007
	c0,0.007,0.007,0.015,0.01,0.021l0.003,0.008l0.011,0.02l0.006,0.01l0.011,0.016l0.008,0.012l0.011,0.012l0.012,0.012l0.01,0.012
	l0.013,0.012l0.012,0.009l0.013,0.01l0.016,0.011l0.012,0.006l0.018,0.011l0.007,0.003h0.003l0.021,0.01l0.01,0.003l0.019,0.006
	h0.013l0.015,0.003h0.02h0.01h0.024h0.007c0.01,0,0.018,0,0.026,0h0.007l0.025-0.004h0.008l0.022-0.005h0.009l0.021-0.009
	l0.008-0.004l0.021-0.01l0.006-0.004l0.022-0.013l0.005-0.003l0.021-0.016l0.004-0.004c0.007-0.005,0.013-0.012,0.019-0.018
	l0.004-0.004c0.006-0.006,0.012-0.012,0.017-0.02l0.006-0.006c0.004-0.006,0.008-0.012,0.013-0.018
	c0.002-0.003,0.005-0.007,0.007-0.01c0.004-0.005,0.006-0.011,0.01-0.017c0.006-0.004,0.012-0.009,0.017-0.013l0.006-0.011
	c0.383-0.804,0.848-1.565,1.386-2.273c0.138-0.191,0.394-0.252,0.601-0.14c0.197,0.09,0.303,0.312,0.249,0.523l-0.838,2.492
	c-0.069,0.271-0.215,0.517-0.419,0.707l-1.496,1.384c-0.069,0.063-0.107,0.152-0.106,0.246v2.661l-0.629-0.216
	c-0.515-0.146-1.061,0.103-1.291,0.591c-0.249,0.489-0.114,1.088,0.317,1.42c0.392,0.31,0.802,0.595,1.227,0.853h-5.126v-5.356
	C13.163,22.589,13.154,22.545,13.137,22.504z M25.877,26.466l-0.514,1.526h-2.603l-1.271-1.404c-0.265-0.297-0.61-0.511-0.992-0.614
	l-1.18-0.405v-2.745l1.39-1.286c0.292-0.27,0.502-0.618,0.604-1.005l0.512-1.527h2.604l1.27,1.406
	c0.268,0.297,0.611,0.511,0.994,0.614l1.18,0.405v2.744l-1.391,1.286C26.188,25.73,25.979,26.079,25.877,26.466z M22.572,34.221
	c-0.042,0-0.085,0.009-0.126,0.025l-0.718,0.307c-0.856,0.369-1.778,0.559-2.708,0.557h-6.764c-0.305,0-0.553-0.25-0.553-0.56
	c0-0.309,0.248-0.559,0.553-0.559h4.324c0.181,0,0.325-0.147,0.325-0.331c0-0.183-0.145-0.33-0.325-0.33h-5.023
	c-0.305,0.01-0.561-0.231-0.57-0.541c-0.011-0.309,0.229-0.567,0.534-0.578c0.012,0,0.024,0,0.036,0h4.325
	c0.182,0,0.328-0.147,0.328-0.33s-0.146-0.33-0.328-0.33h-5.081c-0.304,0-0.552-0.251-0.552-0.56s0.248-0.559,0.552-0.559h5.081
	c0.182,0,0.328-0.148,0.328-0.331s-0.146-0.33-0.328-0.33h-4.057c-0.305,0-0.552-0.25-0.552-0.56c0-0.308,0.247-0.559,0.552-0.559
	h7.755c0.013,0,0.027-0.001,0.041-0.003h0.01c0.013-0.002,0.024-0.005,0.036-0.008h0.005c0.014-0.004,0.026-0.01,0.041-0.016h0.003
	c0.011-0.005,0.022-0.012,0.033-0.018l0.007-0.004c0.012-0.008,0.022-0.017,0.033-0.025l0.005-0.005l0.024-0.024
	c0.005-0.004,0.008-0.009,0.012-0.014c0.008-0.011,0.017-0.021,0.024-0.033l0.004-0.007c0.007-0.01,0.013-0.021,0.018-0.032
	l0.004-0.006v-0.005c0.002-0.005,0.004-0.011,0.006-0.017l0.006-0.013c0-0.007,0-0.012,0.004-0.018l0.004-0.015
	c0-0.006,0-0.012,0.004-0.018c0.002-0.006,0-0.01,0-0.016c0-0.005,0-0.011,0-0.017c0-0.005,0-0.011,0-0.016c0,0,0-0.004,0-0.006
	c0-0.003,0-0.009,0-0.013c0-0.005,0-0.009,0-0.014c0-0.007,0-0.014,0-0.021v-0.009c0-0.009,0-0.016-0.005-0.024v-0.006
	c0-0.008-0.005-0.017-0.009-0.024c0-0.002,0-0.004,0-0.007l-0.008-0.021l-0.005-0.008l-0.009-0.019
	c-0.003-0.004-0.005-0.008-0.008-0.012l-0.009-0.014l-0.011-0.013c-0.004-0.005-0.007-0.008-0.011-0.011
	c-0.005-0.005-0.01-0.01-0.014-0.016l-0.008-0.006c-0.006-0.006-0.012-0.011-0.018-0.017l-0.006-0.005l-0.02-0.015l-0.005-0.004
	c-0.007-0.005-0.014-0.009-0.021-0.013l-0.007-0.003l-0.014-0.009c-0.794-0.387-1.547-0.857-2.246-1.402
	c-0.189-0.139-0.249-0.397-0.139-0.606c0.087-0.201,0.307-0.309,0.517-0.252l1.027,0.354l0.026,0.009l1.41,0.484
	c0.268,0.07,0.512,0.219,0.698,0.426l1.366,1.514c0.063,0.07,0.151,0.108,0.243,0.108h2.524l-0.102,0.304
	c-0.145,0.52,0.102,1.07,0.582,1.305c0.16,0.082,0.338,0.124,0.518,0.125c0.348-0.002,0.676-0.167,0.889-0.447
	c0.305-0.396,0.586-0.809,0.842-1.24v5.521H22.572z M34.049,24.494l0.303,0.728c0.365,0.865,0.553,1.798,0.551,2.739v6.843
	c0,0.308-0.246,0.558-0.553,0.558c-0.305,0-0.551-0.25-0.551-0.558V30.43c-0.01-0.183-0.162-0.325-0.342-0.316
	c-0.17,0.007-0.305,0.145-0.313,0.316v5.083c0,0.309-0.248,0.558-0.553,0.558s-0.553-0.249-0.553-0.558v-4.376
	c-0.008-0.182-0.16-0.324-0.34-0.316c-0.172,0.008-0.307,0.146-0.314,0.316v5.141c0.01,0.309-0.229,0.567-0.533,0.577
	s-0.561-0.232-0.57-0.54c-0.002-0.013-0.002-0.025,0-0.037v-5.141c0-0.182-0.146-0.33-0.326-0.33c-0.182,0-0.326,0.148-0.326,0.33
	v4.103c-0.012,0.309-0.268,0.552-0.572,0.541c-0.291-0.01-0.525-0.246-0.533-0.541v-7.845c0-0.004,0-0.009,0-0.013
	c0-0.005,0-0.009,0-0.014c0-0.007,0-0.015,0-0.021c-0.002-0.003-0.002-0.006,0-0.009c0-0.008-0.004-0.016-0.006-0.023
	c-0.004-0.009,0-0.005,0-0.008c0-0.002-0.006-0.016-0.01-0.023c0.002-0.002,0.002-0.004,0-0.006
	c-0.002-0.008-0.004-0.016-0.008-0.022l-0.004-0.007c-0.004-0.007-0.006-0.014-0.01-0.021l-0.006-0.011l-0.01-0.014l-0.012-0.014
	c-0.002-0.003-0.004-0.007-0.008-0.01l-0.014-0.015l-0.006-0.008l-0.018-0.016l-0.006-0.005c-0.006-0.005-0.012-0.01-0.02-0.015
	l-0.008-0.004l-0.02-0.013l-0.006-0.004l-0.014-0.007h-0.008l-0.012-0.005l-0.016-0.007c-0.01-0.003-0.02-0.005-0.027-0.007l0,0
	c-0.023-0.005-0.051-0.008-0.074-0.008c-0.104,0-0.201,0.049-0.262,0.132l-0.004,0.005c-0.004,0.006-0.008,0.013-0.014,0.02
	l-0.006,0.01c-0.002,0.006-0.006,0.011-0.006,0.017c-0.004,0.003-0.006,0.006-0.006,0.009c-0.385,0.805-0.848,1.566-1.387,2.273
	c-0.137,0.191-0.395,0.251-0.6,0.14c-0.199-0.089-0.305-0.311-0.25-0.523l0.23-0.699c0.006-0.013,0.01-0.024,0.012-0.037l0.59-1.758
	c0.07-0.271,0.217-0.517,0.422-0.706l1.494-1.385c0.068-0.063,0.107-0.152,0.107-0.246v-2.662l0.629,0.217
	c0.098,0.025,0.197,0.039,0.301,0.039c0.422,0.001,0.809-0.243,0.99-0.63c0.248-0.489,0.113-1.088-0.318-1.421
	c-0.391-0.309-0.801-0.594-1.227-0.853h5.123v5.356c0,0.044,0.008,0.089,0.025,0.129H34.049z M36.385,16.565h-5.076
	c-0.18,0-0.328,0.147-0.328,0.33s0.146,0.331,0.328,0.331l0,0h4.055c0.305-0.011,0.561,0.231,0.57,0.54
	c0.01,0.31-0.229,0.568-0.533,0.579c-0.014,0-0.025,0-0.037,0h-7.779h-0.023h-0.006l-0.027,0.006l0,0
	c-0.01,0.002-0.018,0.006-0.027,0.009l0,0c-0.01,0.004-0.02,0.007-0.029,0.012l0,0c-0.008,0.004-0.018,0.009-0.025,0.014h-0.004
	c-0.006,0.005-0.014,0.01-0.02,0.015l-0.008,0.005c-0.006,0.005-0.01,0.009-0.014,0.014c-0.006,0.003-0.008,0.006-0.01,0.009
	l-0.014,0.013l-0.01,0.011l-0.01,0.013l-0.01,0.014l-0.01,0.013l-0.008,0.015l-0.008,0.014l-0.006,0.01v0.006
	c-0.002,0.005-0.004,0.01-0.006,0.015l-0.006,0.016c0,0.005-0.004,0.012-0.004,0.017l-0.004,0.015c0,0.006,0,0.012-0.002,0.018
	c-0.004,0.006,0,0.01,0,0.016c0,0.005,0,0.011,0,0.017c-0.002,0.005-0.002,0.011,0,0.017c0,0,0,0.003,0,0.005s0,0.008,0,0.013
	c0,0.004,0,0.009,0,0.013c0,0.008,0,0.016,0,0.022v0.01c0,0.008,0.002,0.016,0.004,0.022v0.007c0,0.008,0.004,0.017,0.008,0.023
	c0,0.003,0,0.005,0,0.007l0.008,0.022l0.004,0.009l0.01,0.018c0.002,0.005,0.004,0.008,0.008,0.012l0.008,0.015l0.012,0.014
	c0.002,0.003,0.004,0.006,0.008,0.009c0.004,0.006,0.008,0.011,0.014,0.016l0.006,0.007c0.006,0.005,0.012,0.011,0.018,0.016
	l0.006,0.004l0.018,0.017l0.006,0.003c0.008,0.005,0.016,0.01,0.023,0.013l0.006,0.004l0.016,0.008
	c0.795,0.387,1.547,0.857,2.246,1.402c0.189,0.139,0.248,0.397,0.137,0.607c-0.086,0.2-0.307,0.308-0.518,0.252l-2.461-0.848
	c-0.27-0.07-0.512-0.219-0.699-0.426l-1.371-1.504c-0.063-0.068-0.15-0.108-0.242-0.106h-2.52l0.102-0.304
	c0.145-0.521-0.102-1.07-0.583-1.307c-0.483-0.252-1.075-0.116-1.404,0.322c-0.307,0.396-0.587,0.81-0.843,1.241v-5.521h5.297
	c0.045,0,0.088-0.009,0.127-0.026l0.719-0.307c0.857-0.366,1.777-0.555,2.709-0.554h6.764c0.305,0,0.553,0.251,0.553,0.56
	c0,0.31-0.248,0.56-0.553,0.56H30.61c-0.182,0-0.326,0.147-0.326,0.331c0,0.182,0.145,0.329,0.326,0.329h5.023
	c0.305,0,0.553,0.251,0.553,0.56s-0.248,0.559-0.553,0.559h-4.324c-0.18,0-0.328,0.148-0.328,0.331c0,0.182,0.148,0.33,0.328,0.33
	h5.08c0.305,0,0.553,0.251,0.553,0.56s-0.248,0.559-0.553,0.559L36.385,16.565z"/>
</svg>
