<?xml version="1.0" encoding="utf-8"?>
<!-- Generator: Adobe Illustrator 16.0.0, SVG Export Plug-In . SVG Version: 6.00 Build 0)  -->
<!DOCTYPE svg PUBLIC "-//W3C//DTD SVG 1.1//EN" "http://www.w3.org/Graphics/SVG/1.1/DTD/svg11.dtd">
<svg version="1.1" id="Layer_1" xmlns="http://www.w3.org/2000/svg" xmlns:xlink="http://www.w3.org/1999/xlink" x="0px" y="0px"
	 width="47.188px" height="47px" viewBox="0 0 47.188 47" enable-background="new 0 0 47.188 47" xml:space="preserve">
<g id="icon_2_">
	<circle id="circle_8_" fill="none" stroke="#FFFFFF" stroke-width="2" stroke-miterlimit="10" cx="23.626" cy="23.542" r="22.5"/>
</g>
<g id="comunication-icon">
	<path fill="#FFFFFF" d="M29.906,31.917l-1.882-1.077v-0.277c-0.002-1.583-1.234-2.867-2.754-2.869H14.547
		c-1.521,0.002-2.752,1.286-2.753,2.869v3.029c0.001,1.583,1.233,2.866,2.753,2.867h10.724c1.52-0.001,2.752-1.284,2.754-2.867
		v-0.154l1.852-0.848c0.183-0.082,0.266-0.303,0.187-0.494C30.031,32.02,29.976,31.957,29.906,31.917L29.906,31.917z M27.519,32.848
		c-0.131,0.062-0.216,0.196-0.216,0.346v0.398c0,1.169-0.909,2.117-2.032,2.119H14.547c-1.122-0.002-2.031-0.949-2.032-2.117v-3.031
		c0.001-1.168,0.911-2.115,2.032-2.117h10.724c1.122,0.002,2.031,0.949,2.032,2.117v0.496c0,0.138,0.071,0.264,0.187,0.33
		l1.429,0.816L27.519,32.848z"/>
	<path fill="#FFFFFF" d="M17.01,14.396l1.854,0.849v0.152c0.001,1.583,1.232,2.867,2.753,2.869H32.34
		c1.521-0.002,2.751-1.286,2.753-2.869v-3.028c-0.002-1.584-1.232-2.867-2.753-2.869H21.616c-1.521,0.002-2.752,1.285-2.754,2.869
		v0.277l-1.882,1.077c-0.175,0.101-0.237,0.329-0.142,0.511C16.876,14.306,16.936,14.363,17.01,14.396L17.01,14.396z M19.397,13.198
		c0.115-0.067,0.187-0.193,0.187-0.33v-0.5c0.001-1.168,0.911-2.115,2.032-2.117H32.34c1.121,0.001,2.03,0.948,2.032,2.117v3.028
		c-0.002,1.169-0.91,2.116-2.032,2.117H21.616c-1.123-0.001-2.032-0.948-2.033-2.117v-0.394c0-0.149-0.085-0.285-0.217-0.345
		l-1.398-0.64L19.397,13.198z"/>
	<path fill="#FFFFFF" d="M15.889,20.865v1.766c-0.009,0.207,0.145,0.384,0.343,0.393c0.2,0.01,0.368-0.15,0.378-0.358
		c0-0.012,0-0.022,0-0.034v-1.766c-0.002-1.97-1.183-3.73-2.959-4.409c1.366-0.892,1.779-2.767,0.923-4.189
		c-0.856-1.422-2.656-1.852-4.021-0.962c-1.366,0.892-1.779,2.767-0.923,4.189c0.234,0.389,0.55,0.718,0.923,0.961
		c-1.776,0.679-2.957,2.439-2.958,4.409v1.766c-0.009,0.207,0.145,0.384,0.344,0.393c0.2,0.01,0.368-0.15,0.377-0.358
		c0-0.012,0-0.022,0-0.034v-1.766c0-2.177,1.695-3.943,3.787-3.943S15.889,18.688,15.889,20.865z M9.909,13.883
		c0-1.263,0.983-2.286,2.195-2.286s2.195,1.023,2.195,2.286s-0.982,2.286-2.195,2.286c-1.212,0.002-2.197-1.02-2.199-2.282
		c0-0.001,0-0.002,0-0.004H9.909z"/>
	<path fill="#FFFFFF" d="M36.636,30.932c1.365-0.891,1.777-2.766,0.922-4.188s-2.656-1.852-4.021-0.961
		c-1.365,0.893-1.778,2.768-0.923,4.189c0.234,0.387,0.55,0.716,0.923,0.959c-1.776,0.68-2.957,2.439-2.958,4.41v1.766
		c-0.01,0.207,0.145,0.383,0.344,0.393s0.367-0.151,0.377-0.358c0-0.012,0-0.022,0-0.034v-1.766c0-2.178,1.695-3.943,3.787-3.943
		c2.09,0,3.785,1.766,3.785,3.943v1.766c-0.009,0.207,0.146,0.383,0.345,0.393s0.368-0.151,0.377-0.358
		c0.001-0.012,0.001-0.022,0-0.034v-1.766C39.592,33.371,38.411,31.611,36.636,30.932z M32.891,28.359
		c0-1.262,0.982-2.286,2.194-2.286c1.213,0,2.195,1.024,2.195,2.286c0,1.263-0.982,2.286-2.195,2.286
		C33.873,30.646,32.891,29.622,32.891,28.359L32.891,28.359z"/>
</g>
</svg>
