<?xml version="1.0" encoding="utf-8"?>
<!-- Generator: Adobe Illustrator 16.0.0, SVG Export Plug-In . SVG Version: 6.00 Build 0)  -->
<!DOCTYPE svg PUBLIC "-//W3C//DTD SVG 1.1//EN" "http://www.w3.org/Graphics/SVG/1.1/DTD/svg11.dtd">
<svg version="1.1" id="Layer_1" xmlns="http://www.w3.org/2000/svg" xmlns:xlink="http://www.w3.org/1999/xlink" x="0px" y="0px"
	 width="47.063px" height="47.188px" viewBox="0 0 47.063 47.188" enable-background="new 0 0 47.063 47.188" xml:space="preserve">
<g id="icon_3_">
	<circle id="circle_5_" fill="none" stroke="#FFFFFF" stroke-width="2" stroke-miterlimit="10" cx="23.479" cy="23.604" r="22.5"/>
	<g id="langs-icon">
		<path fill="none" stroke="#FFFFFF" stroke-miterlimit="10" d="M37.383,21.813H20.508c-0.537,0-0.945,0.594-0.945,1.131v8.681
			c0,0.537,0.408,1.188,0.945,1.188h8.564l5.49,6.535v-6.535h2.82c0.538,0,1.18-0.65,1.18-1.188v-8.681
			C38.563,22.406,37.921,21.813,37.383,21.813z"/>
		<path fill="none" stroke="#FFFFFF" stroke-miterlimit="10" d="M9.408,9.813h18.781c0.598,0,1.373,0.089,1.373,0.663v9.268
			c0,0.574-0.775,1.069-1.373,1.069h-9.531l-6.096,7.175v-7.175H9.408c-0.599,0-0.846-0.496-0.846-1.069v-9.268
			C8.563,9.901,8.81,9.813,9.408,9.813z"/>
		<text transform="matrix(1 0 0 1 10.5913 18.0254)" fill="#FFFFFF" font-family="'MyriadPro-Regular'" font-size="9.6142">Olá!</text>
		<text transform="matrix(1 0 0 1 23.2441 30.2637)" fill="#FFFFFF" font-family="'MyriadPro-Regular'" font-size="9.6142">Hi!</text>
	</g>
</g>
</svg>
