<?xml version="1.0" encoding="utf-8"?>
<!-- Generator: Adobe Illustrator 16.0.0, SVG Export Plug-In . SVG Version: 6.00 Build 0)  -->
<!DOCTYPE svg PUBLIC "-//W3C//DTD SVG 1.1//EN" "http://www.w3.org/Graphics/SVG/1.1/DTD/svg11.dtd">
<svg version="1.1" id="Layer_1" xmlns="http://www.w3.org/2000/svg" xmlns:xlink="http://www.w3.org/1999/xlink" x="0px" y="0px"
	 width="47.188px" height="47.25px" viewBox="0 0 47.188 47.25" enable-background="new 0 0 47.188 47.25" xml:space="preserve">
<g id="icon_1_">
	<circle id="circle_7_" fill="none" stroke="#FFFFFF" stroke-width="2" stroke-miterlimit="10" cx="23.667" cy="23.635" r="22.5"/>
	<g id="carring">
		<path fill="none" stroke="#FFFFFF" stroke-miterlimit="10" d="M25.222,23.77l4.571-2.902c1.807-1.189,2.885-3.217,2.859-5.381l0,0
			c0-2.669-1.879-4.992-4.359-5.168c-1.668-0.104-3.261,0.713-4.148,2.13c-0.091,0.147-0.285,0.196-0.434,0.106
			c-0.043-0.027-0.08-0.063-0.106-0.106c-0.952-1.522-2.709-2.342-4.486-2.094c-2.338,0.342-4.021,2.599-4.021,5.132l0,0
			c-0.026,2.164,1.051,4.191,2.858,5.381l4.571,2.902C23.348,24.297,24.4,24.297,25.222,23.77z"/>
		<path fill="none" stroke="#FFFFFF" stroke-miterlimit="10" d="M16.083,25.924h-2.958c-0.26,0-0.471,0.211-0.471,0.471l0,0v10.098
			c0,0.26,0.211,0.471,0.471,0.471h2.958c0.566,0,1.026-0.459,1.026-1.025l0,0v-8.988C17.108,26.383,16.649,25.924,16.083,25.924
			L16.083,25.924z"/>
		<path fill="none" stroke="#FFFFFF" stroke-miterlimit="10" d="M34.68,27.109c-0.318-0.484-0.858-0.775-1.438-0.773h-1.158
			c-1.019-0.002-1.936,0.611-2.322,1.553c-0.111,0.268-0.268,0.516-0.462,0.73c-0.667,1.025-1.792,1.664-3.015,1.715h-3.435
			c-0.336-0.01-0.602-0.287-0.594-0.625c0.008-0.324,0.27-0.586,0.594-0.594h3.418c0.438-0.01,0.865-0.146,1.229-0.391v-0.025
			c0.004-1.301-1.046-2.359-2.347-2.363c-0.003,0-0.005,0-0.008,0h-2.521c-0.93-0.002-1.822,0.365-2.479,1.023l-0.064,0.064
			c-0.477,0.477-1.089,0.793-1.753,0.908v6.727h9.19c2.785,0.002,5.304-1.656,6.401-4.217l0.905-2.105
			C35.053,28.203,34.998,27.594,34.68,27.109z"/>
	</g>
</g>
</svg>
