<?xml version="1.0" encoding="utf-8"?>
<!-- Generator: Adobe Illustrator 16.0.0, SVG Export Plug-In . SVG Version: 6.00 Build 0)  -->
<!DOCTYPE svg PUBLIC "-//W3C//DTD SVG 1.1//EN" "http://www.w3.org/Graphics/SVG/1.1/DTD/svg11.dtd">
<svg version="1.1" id="Layer_1" xmlns="http://www.w3.org/2000/svg" xmlns:xlink="http://www.w3.org/1999/xlink" x="0px" y="0px"
	 width="22px" height="21.998px" viewBox="0 0 22 21.998" enable-background="new 0 0 22 21.998" xml:space="preserve">
<g>
	<circle fill="#FFFFFF" cx="11" cy="11" r="11"/>
	<linearGradient id="SVGID_1_" gradientUnits="userSpaceOnUse" x1="0.8633" y1="11.1021" x2="21.1353" y2="11.1021">
		<stop  offset="0" style="stop-color:#CC2B5E"/>
		<stop  offset="1" style="stop-color:#753A88"/>
	</linearGradient>
	<path fill="url(#SVGID_1_)" d="M11,1.15c-5.598,0-10.137,4.456-10.137,9.952c0,5.497,4.539,9.952,10.137,9.952
		c5.598,0,10.135-4.455,10.135-9.952C21.135,5.606,16.598,1.15,11,1.15z M16.124,9.149c0.154,3.352-2.389,7.086-6.897,7.086
		c-1.369,0-2.645-0.396-3.717-1.07c1.287,0.148,2.57-0.203,3.592-0.986c-1.061-0.02-1.957-0.709-2.268-1.654
		c0.381,0.07,0.756,0.051,1.098-0.041c-1.17-0.23-1.975-1.264-1.947-2.366c0.328,0.178,0.701,0.285,1.1,0.298
		c-1.082-0.709-1.387-2.11-0.752-3.181c1.197,1.442,2.984,2.389,5.002,2.488c-0.355-1.489,0.797-2.924,2.364-2.924
		c0.697,0,1.328,0.29,1.77,0.752c0.553-0.106,1.072-0.304,1.541-0.579c-0.182,0.558-0.564,1.023-1.066,1.318
		c0.49-0.058,0.959-0.186,1.393-0.375C17.01,8.394,16.598,8.813,16.124,9.149z"/>
</g>
</svg>
