<?xml version="1.0" encoding="utf-8"?>
<!-- Generator: Adobe Illustrator 16.0.0, SVG Export Plug-In . SVG Version: 6.00 Build 0)  -->
<!DOCTYPE svg PUBLIC "-//W3C//DTD SVG 1.1//EN" "http://www.w3.org/Graphics/SVG/1.1/DTD/svg11.dtd">
<svg version="1.1" id="Layer_1" xmlns="http://www.w3.org/2000/svg" xmlns:xlink="http://www.w3.org/1999/xlink" x="0px" y="0px"
	 width="17.368px" height="21.017px" viewBox="0 0 17.368 21.017" enable-background="new 0 0 17.368 21.017" xml:space="preserve">
<g id="LOGOS">
	<linearGradient id="logo_1_" gradientUnits="userSpaceOnUse" x1="0" y1="10.5083" x2="17.3682" y2="10.5083">
		<stop  offset="0" style="stop-color:#DE6262"/>
		<stop  offset="1" style="stop-color:#FFB88C"/>
	</linearGradient>
	<path id="logo_3_" fill="url(#logo_1_)" d="M14.464,0L9.778,15.682l-0.321,1.015l-0.316,1.166l-2.965-5.913
		c0.584-0.253,1.121-0.567,1.607-0.928c0.488-0.361,0.907-0.778,1.258-1.247c0.352-0.468,0.627-0.991,0.826-1.566
		c0.201-0.575,0.301-1.209,0.301-1.902c0-1.072-0.188-2.006-0.563-2.801S8.715,2.05,8.062,1.524
		C7.398,0.997,6.629,0.645,5.751,0.382S3.938,0,2.943,0H0v1.497c1,0,1.574-0.006,3.451,0.004c2.458,0.014,4.805,1.946,4.805,4.528
		s-2.115,4.683-4.697,4.683c-0.32,0-0.644-0.028-0.945-0.089l1.037,1.793L7.828,21h0.473h2.355h0.023l0.014-0.072l-0.009,0.089
		L17.368,0H14.464z"/>
	<linearGradient id="Virgin_America_1_" gradientUnits="userSpaceOnUse" x1="0" y1="10.5083" x2="17.3682" y2="10.5083">
		<stop  offset="0" style="stop-color:#7B4397"/>
		<stop  offset="1" style="stop-color:#DC2430"/>
	</linearGradient>
	<path id="Virgin_America" fill="url(#Virgin_America_1_)" d="M14.464,0L9.778,15.682l-0.321,1.015l-0.316,1.166l-2.965-5.913
		c0.584-0.253,1.121-0.567,1.607-0.928c0.488-0.361,0.907-0.778,1.258-1.247c0.352-0.468,0.627-0.991,0.826-1.566
		c0.201-0.575,0.301-1.209,0.301-1.902c0-1.072-0.188-2.006-0.563-2.801S8.715,2.05,8.062,1.524
		C7.398,0.997,6.629,0.645,5.751,0.382S3.938,0,2.943,0H0v1.497c1,0,1.574-0.006,3.451,0.004c2.458,0.014,4.805,1.946,4.805,4.528
		s-2.115,4.683-4.697,4.683c-0.32,0-0.644-0.028-0.945-0.089l1.037,1.793L7.828,21h0.473h2.355h0.023l0.014-0.072l-0.009,0.089
		L17.368,0H14.464z"/>
	<linearGradient id="Cutom_blue_1_" gradientUnits="userSpaceOnUse" x1="0" y1="10.5083" x2="17.3682" y2="10.5083">
		<stop  offset="0" style="stop-color:#02AAB0"/>
		<stop  offset="1" style="stop-color:#753A88"/>
	</linearGradient>
	<path id="Cutom_blue" fill="url(#Cutom_blue_1_)" d="M14.464,0L9.778,15.682l-0.321,1.015l-0.316,1.166l-2.965-5.913
		c0.584-0.253,1.121-0.567,1.607-0.928c0.488-0.361,0.907-0.778,1.258-1.247c0.352-0.468,0.627-0.991,0.826-1.566
		c0.201-0.575,0.301-1.209,0.301-1.902c0-1.072-0.188-2.006-0.563-2.801S8.715,2.05,8.062,1.524
		C7.398,0.997,6.629,0.645,5.751,0.382S3.938,0,2.943,0H0v1.497c1,0,1.574-0.006,3.451,0.004c2.458,0.014,4.805,1.946,4.805,4.528
		s-2.115,4.683-4.697,4.683c-0.32,0-0.644-0.028-0.945-0.089l1.037,1.793L7.828,21h0.473h2.355h0.023l0.014-0.072l-0.009,0.089
		L17.368,0H14.464z"/>
	<linearGradient id="Purple_Love_1_" gradientUnits="userSpaceOnUse" x1="0" y1="10.5083" x2="17.3682" y2="10.5083">
		<stop  offset="0" style="stop-color:#CC2B5E"/>
		<stop  offset="1" style="stop-color:#753A88"/>
	</linearGradient>
	<path id="Purple_Love" fill="url(#Purple_Love_1_)" d="M14.464,0L9.778,15.682l-0.321,1.015l-0.316,1.166l-2.965-5.913
		c0.584-0.253,1.121-0.567,1.607-0.928c0.488-0.361,0.907-0.778,1.258-1.247c0.352-0.468,0.627-0.991,0.826-1.566
		c0.201-0.575,0.301-1.209,0.301-1.902c0-1.072-0.188-2.006-0.563-2.801S8.715,2.05,8.062,1.524
		C7.398,0.997,6.629,0.645,5.751,0.382S3.938,0,2.943,0H0v1.497c1,0,1.574-0.006,3.451,0.004c2.458,0.014,4.805,1.946,4.805,4.528
		s-2.115,4.683-4.697,4.683c-0.32,0-0.644-0.028-0.945-0.089l1.037,1.793L7.828,21h0.473h2.355h0.023l0.014-0.072l-0.009,0.089
		L17.368,0H14.464z"/>
</g>
</svg>
